<mxfile host="app.diagrams.net" agent="Mozilla/5.0 (Windows NT 10.0; Win64; x64) AppleWebKit/537.36 (KHTML, like Gecko) Chrome/134.0.0.0 Safari/537.36" version="26.1.0">
  <diagram name="第 1 页" id="qeNGuSvpjeobcAF4kE78">
    <mxGraphModel dx="2675" dy="759" grid="1" gridSize="10" guides="1" tooltips="1" connect="1" arrows="1" fold="1" page="1" pageScale="1" pageWidth="827" pageHeight="1169" math="0" shadow="0">
      <root>
        <mxCell id="0" />
        <mxCell id="1" parent="0" />
        <mxCell id="cu289itAmU5M3cn4rdSP-2" style="edgeStyle=orthogonalEdgeStyle;rounded=0;orthogonalLoop=1;jettySize=auto;html=1;" parent="1" source="cu289itAmU5M3cn4rdSP-1" target="cu289itAmU5M3cn4rdSP-5" edge="1">
          <mxGeometry relative="1" as="geometry">
            <mxPoint x="90" y="150" as="targetPoint" />
          </mxGeometry>
        </mxCell>
        <mxCell id="cu289itAmU5M3cn4rdSP-4" style="edgeStyle=orthogonalEdgeStyle;rounded=0;orthogonalLoop=1;jettySize=auto;html=1;" parent="1" source="cu289itAmU5M3cn4rdSP-1" target="cu289itAmU5M3cn4rdSP-6" edge="1">
          <mxGeometry relative="1" as="geometry">
            <mxPoint x="215" y="150" as="targetPoint" />
          </mxGeometry>
        </mxCell>
        <mxCell id="cu289itAmU5M3cn4rdSP-1" value="world 发起&lt;div&gt;&lt;span style=&quot;font-size: 12px;&quot;&gt;biz_chat_inner_send_chat_msg&lt;/span&gt;&lt;/div&gt;" style="rounded=1;whiteSpace=wrap;html=1;" parent="1" vertex="1">
          <mxGeometry x="170" y="30" width="190" height="30" as="geometry" />
        </mxCell>
        <mxCell id="cu289itAmU5M3cn4rdSP-9" style="edgeStyle=orthogonalEdgeStyle;rounded=0;orthogonalLoop=1;jettySize=auto;html=1;exitX=0.5;exitY=1;exitDx=0;exitDy=0;entryX=0.5;entryY=0;entryDx=0;entryDy=0;" parent="1" source="cu289itAmU5M3cn4rdSP-5" target="cu289itAmU5M3cn4rdSP-8" edge="1">
          <mxGeometry relative="1" as="geometry" />
        </mxCell>
        <mxCell id="cu289itAmU5M3cn4rdSP-5" value="&lt;span style=&quot;font-size: 12px;&quot;&gt;MSGID_CHAT_ACTOR_SS_MSG_SYNC&lt;/span&gt;" style="rounded=1;whiteSpace=wrap;html=1;" parent="1" vertex="1">
          <mxGeometry x="-80" y="145" width="230" height="40" as="geometry" />
        </mxCell>
        <mxCell id="cu289itAmU5M3cn4rdSP-11" value="" style="edgeStyle=orthogonalEdgeStyle;rounded=0;orthogonalLoop=1;jettySize=auto;html=1;" parent="1" source="cu289itAmU5M3cn4rdSP-6" target="cu289itAmU5M3cn4rdSP-10" edge="1">
          <mxGeometry relative="1" as="geometry" />
        </mxCell>
        <mxCell id="cu289itAmU5M3cn4rdSP-6" value="&lt;span style=&quot;font-size: 12px;&quot;&gt;MSGID_CHAT_SS_MSG_REQ&lt;/span&gt;" style="rounded=1;whiteSpace=wrap;html=1;" parent="1" vertex="1">
          <mxGeometry x="380" y="155" width="170" height="40" as="geometry" />
        </mxCell>
        <mxCell id="cu289itAmU5M3cn4rdSP-13" value="" style="edgeStyle=orthogonalEdgeStyle;rounded=0;orthogonalLoop=1;jettySize=auto;html=1;" parent="1" source="cu289itAmU5M3cn4rdSP-8" target="cu289itAmU5M3cn4rdSP-12" edge="1">
          <mxGeometry relative="1" as="geometry" />
        </mxCell>
        <mxCell id="cu289itAmU5M3cn4rdSP-8" value="actor" style="rounded=1;whiteSpace=wrap;html=1;" parent="1" vertex="1">
          <mxGeometry x="-20" y="220" width="120" height="40" as="geometry" />
        </mxCell>
        <mxCell id="cu289itAmU5M3cn4rdSP-10" value="chat" style="whiteSpace=wrap;html=1;rounded=1;" parent="1" vertex="1">
          <mxGeometry x="407.5" y="230" width="115" height="30" as="geometry" />
        </mxCell>
        <mxCell id="cu289itAmU5M3cn4rdSP-12" value="&lt;span style=&quot;font-size: 12px;&quot;&gt;MSGID_CHAT_SS_MSG_REQ&lt;/span&gt;" style="whiteSpace=wrap;html=1;rounded=1;" parent="1" vertex="1">
          <mxGeometry x="-60" y="310" width="200" height="40" as="geometry" />
        </mxCell>
        <mxCell id="S5VCjM0rffx2GHFme63s-1" value="通用聊天分享逻辑" style="text;html=1;align=center;verticalAlign=middle;whiteSpace=wrap;rounded=0;" vertex="1" parent="1">
          <mxGeometry x="-750" y="30" width="110" height="30" as="geometry" />
        </mxCell>
        <mxCell id="S5VCjM0rffx2GHFme63s-4" value="" style="edgeStyle=orthogonalEdgeStyle;rounded=0;orthogonalLoop=1;jettySize=auto;html=1;" edge="1" parent="1" source="S5VCjM0rffx2GHFme63s-2" target="S5VCjM0rffx2GHFme63s-3">
          <mxGeometry relative="1" as="geometry" />
        </mxCell>
        <mxCell id="S5VCjM0rffx2GHFme63s-2" value="&lt;span style=&quot;font-size: 12px;&quot;&gt;chat_msg_req&lt;/span&gt;" style="rounded=1;whiteSpace=wrap;html=1;" vertex="1" parent="1">
          <mxGeometry x="-750" y="60" width="110" height="30" as="geometry" />
        </mxCell>
        <mxCell id="S5VCjM0rffx2GHFme63s-6" value="" style="edgeStyle=orthogonalEdgeStyle;rounded=0;orthogonalLoop=1;jettySize=auto;html=1;" edge="1" parent="1" source="S5VCjM0rffx2GHFme63s-3" target="S5VCjM0rffx2GHFme63s-5">
          <mxGeometry relative="1" as="geometry" />
        </mxCell>
        <mxCell id="S5VCjM0rffx2GHFme63s-3" value="routine 异步校验" style="whiteSpace=wrap;html=1;rounded=1;" vertex="1" parent="1">
          <mxGeometry x="-752.5" y="120" width="115" height="35" as="geometry" />
        </mxCell>
        <mxCell id="S5VCjM0rffx2GHFme63s-8" value="" style="edgeStyle=orthogonalEdgeStyle;rounded=0;orthogonalLoop=1;jettySize=auto;html=1;" edge="1" parent="1" source="S5VCjM0rffx2GHFme63s-5" target="S5VCjM0rffx2GHFme63s-7">
          <mxGeometry relative="1" as="geometry" />
        </mxCell>
        <mxCell id="S5VCjM0rffx2GHFme63s-5" value="&lt;span style=&quot;font-size: 12px;&quot;&gt;chat_msg_req_get_share_detail&lt;/span&gt;" style="whiteSpace=wrap;html=1;rounded=1;" vertex="1" parent="1">
          <mxGeometry x="-802.5" y="185" width="215" height="27.5" as="geometry" />
        </mxCell>
        <mxCell id="S5VCjM0rffx2GHFme63s-10" value="" style="edgeStyle=orthogonalEdgeStyle;rounded=0;orthogonalLoop=1;jettySize=auto;html=1;" edge="1" parent="1" source="S5VCjM0rffx2GHFme63s-7" target="S5VCjM0rffx2GHFme63s-9">
          <mxGeometry relative="1" as="geometry" />
        </mxCell>
        <mxCell id="S5VCjM0rffx2GHFme63s-16" style="edgeStyle=orthogonalEdgeStyle;rounded=0;orthogonalLoop=1;jettySize=auto;html=1;entryX=0.5;entryY=0;entryDx=0;entryDy=0;" edge="1" parent="1" source="S5VCjM0rffx2GHFme63s-7" target="S5VCjM0rffx2GHFme63s-13">
          <mxGeometry relative="1" as="geometry" />
        </mxCell>
        <mxCell id="S5VCjM0rffx2GHFme63s-7" value="根据detail_type判断是否需要跨服获取数据" style="rhombus;whiteSpace=wrap;html=1;rounded=1;" vertex="1" parent="1">
          <mxGeometry x="-735" y="230" width="80" height="80" as="geometry" />
        </mxCell>
        <mxCell id="S5VCjM0rffx2GHFme63s-12" value="" style="edgeStyle=orthogonalEdgeStyle;rounded=0;orthogonalLoop=1;jettySize=auto;html=1;dashed=1;" edge="1" parent="1" source="S5VCjM0rffx2GHFme63s-9" target="S5VCjM0rffx2GHFme63s-11">
          <mxGeometry relative="1" as="geometry" />
        </mxCell>
        <mxCell id="S5VCjM0rffx2GHFme63s-9" value="&lt;span style=&quot;font-size: 12px;&quot;&gt;发送请求CHAT_SHARE_SS_GET_DETAIL_REQ&lt;/span&gt;" style="whiteSpace=wrap;html=1;rounded=1;" vertex="1" parent="1">
          <mxGeometry x="-1105" y="255" width="230" height="30" as="geometry" />
        </mxCell>
        <mxCell id="S5VCjM0rffx2GHFme63s-14" value="" style="edgeStyle=orthogonalEdgeStyle;rounded=0;orthogonalLoop=1;jettySize=auto;html=1;" edge="1" parent="1" source="S5VCjM0rffx2GHFme63s-11" target="S5VCjM0rffx2GHFme63s-13">
          <mxGeometry relative="1" as="geometry" />
        </mxCell>
        <mxCell id="S5VCjM0rffx2GHFme63s-11" value="收到回包&lt;div&gt;&lt;span style=&quot;font-size: 12px;&quot;&gt;CHAT_SHARE_SS_GET_DETAIL_RSP&lt;/span&gt;&lt;/div&gt;" style="whiteSpace=wrap;html=1;rounded=1;" vertex="1" parent="1">
          <mxGeometry x="-1120" y="350" width="260" height="30" as="geometry" />
        </mxCell>
        <mxCell id="S5VCjM0rffx2GHFme63s-18" value="" style="edgeStyle=orthogonalEdgeStyle;rounded=0;orthogonalLoop=1;jettySize=auto;html=1;" edge="1" parent="1" source="S5VCjM0rffx2GHFme63s-13" target="S5VCjM0rffx2GHFme63s-17">
          <mxGeometry relative="1" as="geometry" />
        </mxCell>
        <mxCell id="S5VCjM0rffx2GHFme63s-13" value="routine_next" style="whiteSpace=wrap;html=1;rounded=1;" vertex="1" parent="1">
          <mxGeometry x="-755" y="335" width="120" height="60" as="geometry" />
        </mxCell>
        <mxCell id="S5VCjM0rffx2GHFme63s-20" value="" style="edgeStyle=orthogonalEdgeStyle;rounded=0;orthogonalLoop=1;jettySize=auto;html=1;" edge="1" parent="1" source="S5VCjM0rffx2GHFme63s-17" target="S5VCjM0rffx2GHFme63s-19">
          <mxGeometry relative="1" as="geometry" />
        </mxCell>
        <mxCell id="S5VCjM0rffx2GHFme63s-17" value="chat_msg_req_check_fini" style="whiteSpace=wrap;html=1;rounded=1;" vertex="1" parent="1">
          <mxGeometry x="-755" y="420" width="120" height="60" as="geometry" />
        </mxCell>
        <mxCell id="S5VCjM0rffx2GHFme63s-22" value="" style="edgeStyle=orthogonalEdgeStyle;rounded=0;orthogonalLoop=1;jettySize=auto;html=1;" edge="1" parent="1" source="S5VCjM0rffx2GHFme63s-19" target="S5VCjM0rffx2GHFme63s-21">
          <mxGeometry relative="1" as="geometry" />
        </mxCell>
        <mxCell id="S5VCjM0rffx2GHFme63s-19" value="&lt;span style=&quot;font-size: 12px;&quot;&gt;chat_req_handler&lt;/span&gt;" style="whiteSpace=wrap;html=1;rounded=1;" vertex="1" parent="1">
          <mxGeometry x="-755" y="510" width="120" height="60" as="geometry" />
        </mxCell>
        <mxCell id="S5VCjM0rffx2GHFme63s-24" value="" style="edgeStyle=orthogonalEdgeStyle;rounded=0;orthogonalLoop=1;jettySize=auto;html=1;" edge="1" parent="1" source="S5VCjM0rffx2GHFme63s-21" target="S5VCjM0rffx2GHFme63s-23">
          <mxGeometry relative="1" as="geometry" />
        </mxCell>
        <mxCell id="S5VCjM0rffx2GHFme63s-21" value="&lt;div&gt;根据不同的频道选择注册的函数&lt;/div&gt;&lt;span style=&quot;font-size: 12px;&quot;&gt;actor_chat_handler_get_req&lt;/span&gt;" style="whiteSpace=wrap;html=1;rounded=1;" vertex="1" parent="1">
          <mxGeometry x="-755" y="610" width="120" height="60" as="geometry" />
        </mxCell>
        <mxCell id="S5VCjM0rffx2GHFme63s-23" value="&lt;div&gt;&lt;span style=&quot;font-size: 12px;&quot;&gt;chat_svr处理：&lt;/span&gt;&lt;/div&gt;&lt;span style=&quot;font-size: 12px;&quot;&gt;MSGID_CHAT_SS_MSG_REQ&lt;/span&gt;" style="whiteSpace=wrap;html=1;rounded=1;" vertex="1" parent="1">
          <mxGeometry x="-755" y="700" width="120" height="60" as="geometry" />
        </mxCell>
        <mxCell id="S5VCjM0rffx2GHFme63s-25" value="world额外填充数据" style="rounded=0;whiteSpace=wrap;html=1;" vertex="1" parent="1">
          <mxGeometry x="-1301" y="260" width="151" height="120" as="geometry" />
        </mxCell>
      </root>
    </mxGraphModel>
  </diagram>
</mxfile>
